<svg id="Layer_1" data-name="Layer 1" xmlns="http://www.w3.org/2000/svg" viewBox="0 0 500 500"><defs><style>.cls-1{fill:#5a5a5a;}</style></defs><title>icon-magnifying-glass</title><path class="cls-1" d="M492.29,457.63h0L346.53,311.87a182.23,182.23,0,0,1-34.65,34.65l145,145,.18.18.55.55h0a24.52,24.52,0,0,0,41.25-18A23.87,23.87,0,0,0,492.29,457.63Z"/><path class="cls-1" d="M186.47,372.37C83.8,372.37.38,289,.38,186.28S83.8.18,186.47.18s186.1,83.43,186.1,186.1S289.15,372.37,186.47,372.37Zm0-341C101,31.35,31.55,100.84,31.55,186.28S101,341.21,186.47,341.21,341.4,271.72,341.4,186.28,271.91,31.35,186.47,31.35Z"/></svg>